HIERARCHY
ROOT hip
{
	OFFSET 0.000000 0.000000 0.000000 
	CHANNELS 6 Xposition Yposition Zposition Xrotation Zrotation Yrotation
	JOINT abdomen
	{
		OFFSET 0.000000 3.402643 0.000000 
		CHANNELS 3 Xrotation Zrotation Yrotation
		JOINT chest
		{
			OFFSET 0.000000 8.438565 -0.680529 
			CHANNELS 3 Xrotation Zrotation Yrotation
			JOINT neck
			{
				OFFSET 0.000000 10.207942 -0.272212 
				CHANNELS 3 Xrotation Zrotation Yrotation
				JOINT head
				{
					OFFSET 0.000000 3.130431 0.000000 
					CHANNELS 3 Xrotation Zrotation Yrotation
					End Site
					{
						OFFSET 0.000000 3.130435 0.000000 
					}
				}
			}
			JOINT lCollar
			{
				OFFSET 3.470700 6.669187 -0.816635 
				CHANNELS 3 Yrotation Zrotation Xrotation
				JOINT lShldr
				{
					OFFSET 3.198488 0.000000 0.000000 
					CHANNELS 3 Zrotation Yrotation Xrotation
					JOINT lForeArm
					{
						OFFSET 10.139888 0.000000 0.000000 
						CHANNELS 3 Yrotation Zrotation Xrotation
						JOINT lHand
						{
							OFFSET 8.370511 0.000000 0.000000 
							CHANNELS 3 Zrotation Yrotation Xrotation
							End Site
							{
								OFFSET 4.083176 0.000000 0.000000 
							}
						}
					}
				}
			}
			JOINT rCollar
			{
				OFFSET -3.470700 6.669187 -0.816635 
				CHANNELS 3 Yrotation Zrotation Xrotation
				JOINT rShldr
				{
					OFFSET -3.198488 0.000000 0.000000 
					CHANNELS 3 Zrotation Yrotation Xrotation
					JOINT rForeArm
					{
						OFFSET -10.139888 0.000000 0.000000 
						CHANNELS 3 Yrotation Zrotation Xrotation
						JOINT rHand
						{
							OFFSET -8.370511 0.000000 0.000000 
							CHANNELS 3 Zrotation Yrotation Xrotation
							End Site
							{
								OFFSET -4.083176 0.000000 0.000000 
							}
						}
					}
				}
			}
		}
	}
	JOINT lThigh
	{
		OFFSET 5.308129 -1.633274 1.361059 
		CHANNELS 3 Xrotation Zrotation Yrotation
		JOINT lShin
		{
			OFFSET -2.041588 -20.007561 0.000000 
			CHANNELS 3 Xrotation Zrotation Yrotation
			JOINT lFoot
			{
				OFFSET 0.000000 -19.190928 -1.224953 
				CHANNELS 3 Xrotation Yrotation Zrotation
				End Site
				{
					OFFSET 0.000000 -2.449906 4.627600 
				}
			}
		}
	}
	JOINT rThigh
	{
		OFFSET -5.308129 -1.633274 1.361059 
		CHANNELS 3 Xrotation Zrotation Yrotation
		JOINT rShin
		{
			OFFSET 2.041588 -20.007561 0.000000 
			CHANNELS 3 Xrotation Zrotation Yrotation
			JOINT rFoot
			{
				OFFSET 0.000000 -19.190928 -1.224953 
				CHANNELS 3 Xrotation Yrotation Zrotation
				End Site
				{
					OFFSET 0.000000 -2.449906 4.627600 
				}
			}
		}
	}
}
MOTION
Frames: 6
Frame Time: 0.033333
-7.037975 51.402584 -1.378246 4.709853 4.185090 100.628197 0.000000 0.000000 0.000000 11.629656 -3.194899 4.274401 -8.603516 0.000000 0.000000 3.950137 2.637773 0.000444 -2.957607 -0.090307 -0.002318 -71.951332 -1.545149 -21.507011 3.447316 -5.174507 5.144735 1.649832 -8.133438 31.188190 2.957607 0.090307 -0.002334 84.630051 12.355904 3.400918 6.737578 10.007054 2.983027 -8.551497 29.209431 40.356346 1.942834 13.016139 14.774980 8.898367 -12.133436 4.964819 1.496037 12.240242 -1.389824 9.735291 -22.616892 -19.778549 21.648340 9.771050 2.483798 -10.825481 1.609435 5.437297 
-7.183342 51.405643 -1.251800 4.710148 4.233753 100.339233 0.000000 0.000000 0.000000 11.735506 -3.040678 4.075547 -8.603516 0.000000 0.000000 3.892090 2.472098 0.353155 -2.957607 -0.090307 -0.002318 -72.368851 -2.336609 -21.323956 3.373139 -5.190677 5.336636 2.162510 -8.141317 30.590542 2.957607 0.090307 -0.002334 84.423119 12.452892 3.214273 6.654779 10.028090 3.167415 -8.493859 29.125092 40.343845 2.058487 12.992723 15.115090 8.870788 -12.068192 4.944086 1.552961 12.216847 -1.383810 9.838420 -22.249790 -19.862459 21.018576 9.661294 2.328295 -11.108027 1.946089 5.320521 
-7.545910 51.371086 -0.955066 4.652169 4.360642 99.915504 0.000000 0.000000 0.000000 12.073419 -2.626228 3.500669 -8.603516 0.000000 0.000000 3.658619 2.150178 1.112971 -2.957607 -0.090307 -0.002318 -73.509552 -4.308433 -19.958109 2.906566 -5.485526 5.658665 2.455030 -8.094008 29.958206 2.957607 0.090307 -0.002334 83.842010 12.697369 2.242992 6.663202 10.050984 3.260647 -8.544598 28.896496 39.793453 1.943054 13.300303 15.838133 9.114007 -12.037934 4.823140 1.771898 11.977243 -1.420063 9.569757 -21.659798 -19.665888 20.223305 9.575923 2.204301 -11.465586 2.156720 4.841873 
-7.932838 51.354996 -0.649142 4.476349 4.439596 99.498070 0.000000 0.000000 0.000000 12.410798 -2.098278 2.926986 -8.603516 0.000000 0.000000 3.483658 1.848071 1.943909 -2.957607 -0.090307 -0.002318 -74.699570 -6.390248 -18.460016 2.268954 -5.910981 5.872485 2.631016 -8.073379 29.498768 2.957607 0.090307 -0.002334 83.284218 12.923967 1.125555 6.533618 10.053340 3.309068 -8.735435 28.658627 39.056129 1.610635 13.808009 16.595387 9.298076 -11.986524 4.712083 2.294492 11.672715 -1.528819 9.010111 -20.923962 -19.224623 19.544514 9.514969 2.091903 -11.520723 2.182134 4.216017 
-8.792016 51.332222 -0.011812 4.005879 4.383837 98.725266 0.000000 0.000000 0.000000 13.009496 -0.913441 2.083759 -8.603516 0.000000 0.000000 3.035952 1.166348 3.235946 -2.957607 -0.090307 -0.002318 -77.206841 -10.161251 -15.254635 0.071219 -7.118190 6.198781 2.849408 -8.412125 28.293228 2.957607 0.090307 -0.002334 82.210518 12.998468 -0.677167 6.134996 9.980058 3.348067 -8.961186 28.124607 38.066265 -0.537629 15.652227 18.251118 10.263702 -12.015507 4.502618 4.619108 10.568220 -1.814463 8.025859 -19.071360 -18.811588 17.779205 9.291622 1.677614 -11.173514 2.868232 2.972069 
-10.647130 51.320892 1.544519 3.491345 6.794126 96.751991 0.000000 0.000000 0.000000 13.486942 -0.541291 2.536109 -8.603516 0.000000 0.000000 4.042803 0.486735 6.142817 -2.957607 -0.090307 -0.002318 -78.789047 -11.695796 -13.176888 -0.976760 -7.634808 6.764730 6.790238 -10.313598 25.790529 2.957607 0.090307 -0.002334 82.064911 13.023604 -2.368304 5.887077 9.960199 3.359487 -9.410902 27.624537 37.266666 -0.705163 15.909185 17.574480 10.167646 -12.183474 4.533756 4.804827 9.289043 -2.033220 7.469759 -19.510462 -18.534950 18.023769 9.233333 1.903075 -11.220150 2.316090 3.805693 
